<svg xmlns="http://www.w3.org/2000/svg" viewBox="0 0 256 256" role="img" aria-labelledby="title desc">
  <title id="title">ChatOrbit Token Logo</title>
  <desc id="desc">Circular token emblem with dual message tails orbiting a shared core.</desc>
  <defs>
    <linearGradient id="bg" x1="0%" y1="0%" x2="100%" y2="100%">
      <stop offset="0%" stop-color="#5B8BFF" />
      <stop offset="100%" stop-color="#7AE4FF" />
    </linearGradient>
    <linearGradient id="orbit" x1="0%" y1="0%" x2="100%" y2="0%">
      <stop offset="0%" stop-color="#102246" />
      <stop offset="100%" stop-color="#214F9A" />
    </linearGradient>
  </defs>
  <circle cx="128" cy="128" r="116" fill="url(#bg)" />
  <circle cx="128" cy="128" r="96" fill="#0A1428" opacity="0.08" />
  <path d="M128 60c42 0 76 34 76 76s-34 76-76 76-76-34-76-76 34-76 76-76zm0 12c-35.3 0-64 28.7-64 64s28.7 64 64 64 64-28.7 64-64-28.7-64-64-64z" fill="url(#orbit)" />
  <path d="M110 107c-16 0-29 11.6-29 25.9 0 9.2 5.6 17.6 14.4 22.2l-4.4 15 17.7-9.4c0.9 0.1 1.7 0.2 2.7 0.2 16 0 29-11.6 29-25.9 0-14.3-13-27-30.4-27zm36 0c16 0 29 11.6 29 25.9 0 9.2-5.6 17.6-14.4 22.2l4.4 15-17.7-9.4c-0.9 0.1-1.7 0.2-2.7 0.2-16 0-29-11.6-29-25.9 0-14.3 13-27 30.4-27z" fill="#0A1428" opacity="0.82" />
  <circle cx="128" cy="128" r="18" fill="#FFFFFF" />
</svg>
