<svg width="512" height="512" viewBox="0 0 512 512" fill="none" xmlns="http://www.w3.org/2000/svg">
  <defs>
    <linearGradient id="bubbleGradient" x1="106" y1="90" x2="372" y2="366" gradientUnits="userSpaceOnUse">
      <stop offset="0" stop-color="#3B82F6"/>
      <stop offset="1" stop-color="#8B5CF6"/>
    </linearGradient>
    <linearGradient id="ringGradient" x1="60" y1="256" x2="452" y2="256" gradientUnits="userSpaceOnUse">
      <stop offset="0" stop-color="#22D3EE"/>
      <stop offset="1" stop-color="#2563EB"/>
    </linearGradient>
    <linearGradient id="lockGradient" x1="302" y1="308" x2="404" y2="410" gradientUnits="userSpaceOnUse">
      <stop offset="0" stop-color="#FDBA74"/>
      <stop offset="1" stop-color="#FB923C"/>
    </linearGradient>
    <filter id="shadow" x="20" y="30" width="472" height="472" filterUnits="userSpaceOnUse" color-interpolation-filters="sRGB">
      <feDropShadow dx="0" dy="18" stdDeviation="18" flood-color="#0F172A" flood-opacity="0.45"/>
    </filter>
  </defs>
  <rect width="512" height="512" rx="160" fill="#020617"/>
  <g filter="url(#shadow)">
    <path d="M256 104c-91.2 0-165 73.8-165 165 0 34.8 10.8 67 29.2 94.1 6.3 9.1 1.6 21.5-9.1 24.3l-37.6 9.9c-6.6 1.8-7.2 11-0.9 13.7 39.4 16.7 82.7 24.9 127 24.9 136.6 0 247.3-105.9 247.3-235.7C446.9 179.3 359.6 104 256 104Z" stroke="url(#ringGradient)" stroke-width="26" stroke-linecap="round" stroke-linejoin="round"/>
  </g>
  <circle cx="238" cy="230" r="120" fill="url(#bubbleGradient)"/>
  <g filter="url(#shadow)">
    <path d="M344 204c35.9 0 65 29.1 65 65 0 13.8-4.2 26.6-11.3 37.2a12.5 12.5 0 0 0 6.3 18.5l21.3 7.4c4.3 1.5 4.7 7.4 0.6 9.3-22.4 10.4-47.3 15.6-72.6 15.6-58.4 0-105.8-45.3-105.8-101 0-28.4 12.1-54 31.4-72.1 15.6-14.5 36.5-23.9 59.9-23.9Z" fill="#1F2937" fill-opacity="0.45"/>
  </g>
  <circle cx="201.5" cy="230" r="14.5" fill="#F8FAFC" fill-opacity="0.85"/>
  <circle cx="238" cy="230" r="14.5" fill="#F8FAFC" fill-opacity="0.85"/>
  <circle cx="274.5" cy="230" r="14.5" fill="#F8FAFC" fill-opacity="0.85"/>
  <g transform="translate(292 278)">
    <path d="M54 4c-18.7 0-34 15.3-34 34v14h-4c-8.8 0-16 7.2-16 16v52c0 8.8 7.2 16 16 16h76c8.8 0 16-7.2 16-16v-52c0-8.8-7.2-16-16-16h-4v-14c0-18.7-15.3-34-34-34Z" fill="url(#lockGradient)"/>
    <path d="M54 22c8.8 0 16 7.2 16 16v14H38v-14c0-8.8 7.2-16 16-16Z" fill="#1E293B" fill-opacity="0.35"/>
    <rect x="46" y="62" width="16" height="28" rx="8" fill="#0F172A" fill-opacity="0.75"/>
  </g>
</svg>
