<svg xmlns="http://www.w3.org/2000/svg" viewBox="0 0 96 96" role="img" aria-labelledby="title desc">
  <title id="title">ChatOrbit Glyph</title>
  <desc id="desc">Minimal orbital mark with paired message sparks.</desc>
  <defs>
    <radialGradient id="core" cx="50%" cy="50%" r="65%">
      <stop offset="0%" stop-color="#8FF2FF" />
      <stop offset="100%" stop-color="#2C6BE7" />
    </radialGradient>
  </defs>
  <circle cx="48" cy="48" r="46" fill="#041124" />
  <path d="M48 18c-16.6 0-30 13.4-30 30s13.4 30 30 30 30-13.4 30-30-13.4-30-30-30zm0 6c13.3 0 24 10.7 24 24s-10.7 24-24 24-24-10.7-24-24 10.7-24 24-24z" fill="#193762" />
  <circle cx="48" cy="48" r="12" fill="url(#core)" />
  <path d="M24 44a4 4 0 0 1 4-4h4a8 8 0 0 1 8 8v4a4 4 0 0 1-4 4h-4a8 8 0 0 1-8-8v-4zm40 0a4 4 0 0 1 4-4h4a8 8 0 0 1 8 8v4a4 4 0 0 1-4 4h-4a8 8 0 0 1-8-8v-4z" fill="#8FF2FF" />
</svg>
